<?xml version="1.0" encoding="utf-8"?>
<!-- Generator: Adobe Illustrator 23.0.3, SVG Export Plug-In . SVG Version: 6.00 Build 0)  -->
<svg version="1.1" id="Laag_1" xmlns="http://www.w3.org/2000/svg" xmlns:xlink="http://www.w3.org/1999/xlink" x="0px" y="0px"
	 viewBox="0 0 2820.4 512" style="enable-background:new 0 0 2820.4 512;" xml:space="preserve">
<path d="M259.3,18.8L194,151.2L47.9,172.5c-26.2,3.8-36.7,36.1-17.7,54.6l105.7,103l-25,145.5c-4.5,26.3,23.2,46,46.4,33.7
	L288,440.6l130.7,68.7c23.2,12.2,50.9-7.4,46.4-33.7l-25-145.5l105.7-103c19-18.5,8.5-50.8-17.7-54.6L382,151.2L316.7,18.8
	C305-4.8,271.1-5.1,259.3,18.8L259.3,18.8z"/>
<path d="M818.3,17.8L753,150.2l-146.1,21.3c-26.2,3.8-36.7,36.1-17.7,54.6l105.7,103l-25,145.5c-4.5,26.3,23.2,46,46.4,33.7
	L847,439.6l130.7,68.7c23.2,12.2,50.9-7.4,46.4-33.7l-25-145.5l105.7-103c19-18.5,8.5-50.8-17.7-54.6L941,150.2L875.7,17.8
	C864-5.8,830.1-6.1,818.3,17.8L818.3,17.8z"/>
<path d="M1381.3,15.8L1316,148.2l-146.1,21.3c-26.2,3.8-36.7,36.1-17.7,54.6l105.7,103l-25,145.5c-4.5,26.3,23.2,46,46.4,33.7
	l130.7-68.7l130.7,68.7c23.2,12.2,50.9-7.4,46.4-33.7l-25-145.5l105.7-103c19-18.5,8.5-50.8-17.7-54.6L1504,148.2l-65.3-132.4
	C1427-7.8,1393.1-8.1,1381.3,15.8L1381.3,15.8z"/>
<path d="M1940.3,14.8L1875,147.2l-146.1,21.3c-26.2,3.8-36.7,36.1-17.7,54.6l105.7,103l-25,145.5c-4.5,26.3,23.2,46,46.4,33.7
	l130.7-68.7l130.7,68.7c23.2,12.2,50.9-7.4,46.4-33.7l-25-145.5l105.7-103c19-18.5,8.5-50.8-17.7-54.6L2063,147.2l-65.3-132.4
	C1986-8.8,1952.1-9.1,1940.3,14.8L1940.3,14.8z"/>
<path d="M2501.3,15.8L2436,148.2l-146.1,21.3c-26.2,3.8-36.7,36.1-17.7,54.6l105.7,103l-25,145.5c-4.5,26.3,23.2,46,46.4,33.7
	l130.7-68.7l130.7,68.7c23.2,12.2,50.9-7.4,46.4-33.7l-25-145.5l105.7-103c19-18.5,8.5-50.8-17.7-54.6L2624,148.2l-65.3-132.4
	C2547-7.8,2513.1-8.1,2501.3,15.8L2501.3,15.8z"/>
</svg>
